<svg width="1440" height="253" viewBox="0 0 1440 253" fill="none" xmlns="http://www.w3.org/2000/svg">
<path fill-rule="evenodd" clip-rule="evenodd" d="M0 0L34 12.8843C69 25.1829 137 50.3657 206 71.4491C274 92.5324 343 109.516 411 97.2176C480 84.3333 549 42.1667 617 46.2662C686 50.3657 754 101.317 823 134.699C891 168.667 960 185.65 1029 181.551C1097 176.866 1166 151.683 1234 147.583C1303 143.484 1371 160.468 1406 168.667L1440 176.866V253H1406C1371 253 1303 253 1234 253C1166 253 1097 253 1029 253C960 253 891 253 823 253C754 253 686 253 617 253C549 253 480 253 411 253C343 253 274 253 206 253C137 253 69 253 34 253H0V0Z" fill="#0099FF" fill-opacity="0.75"/>
</svg>
